<?xml version="1.0" standalone="no"?><!DOCTYPE svg PUBLIC "-//W3C//DTD SVG 1.1//EN" "http://www.w3.org/Graphics/SVG/1.1/DTD/svg11.dtd"><svg class="icon" width="200px" height="200.00px" viewBox="0 0 1024 1024" version="1.1" xmlns="http://www.w3.org/2000/svg"><path fill="#515151" d="M927.056 224c18.192 0 32.944 15.632 32.944 34.912 0 2.08-0.176 4.176-0.528 6.24L887.36 685.344C876 751.744 821.44 800 757.76 800H208.944C190.752 800 176 784.368 176 765.088V293.824C176 255.264 205.488 224 241.872 224h685.184z m-71.328 457.024L928 256H241.024c-17.408 0-31.68 14.4-32.928 32.672l-0.096 2.64V768h550.24c46.56 0 86.64-34.608 96.704-82.816l0.784-4.16z"  /><path fill="#515151" d="M448 336a32 32 0 0 1 32 32v256a32 32 0 0 1-32 32h-64a32 32 0 0 1-32-32V368a32 32 0 0 1 32-32h64z m0 32h-64v256h64V368zM672 336a32 32 0 0 1 32 32v256a32 32 0 0 1-32 32h-64a32 32 0 0 1-32-32V368a32 32 0 0 1 32-32h64z m0 32h-64v256h64V368zM320 256a32 32 0 0 0 32-32v-16a63.76 63.76 0 0 0-46.128-61.28L243.36 128.768A429.648 429.648 0 0 0 124.576 112H96a32 32 0 0 0-32 32v41.344a32 32 0 0 0 32 32h27.088c38.88 0 77.216 8.96 112.048 26.208l25.12 12.448H320z m-70.672-41.12a284.512 284.512 0 0 0-118.512-29.44l-7.728-0.096H96V144h28.576c34.08 0 68.016 4.384 100.96 13.04l8.96 2.464 62.528 17.984c12.752 3.664 21.792 14.832 22.88 27.872L320 208v16h-52.272l-18.4-9.12zM352 800a64 64 0 1 1 0 128 64 64 0 0 1 0-128z m0 32a32 32 0 1 0 0 64 32 32 0 0 0 0-64zM720 800a64 64 0 1 1 0 128 64 64 0 0 1 0-128z m0 32a32 32 0 1 0 0 64 32 32 0 0 0 0-64z"  /></svg>