<?xml version="1.0" standalone="no"?><!DOCTYPE svg PUBLIC "-//W3C//DTD SVG 1.1//EN" "http://www.w3.org/Graphics/SVG/1.1/DTD/svg11.dtd"><svg class="icon" width="200px" height="200.00px" viewBox="0 0 1024 1024" version="1.1" xmlns="http://www.w3.org/2000/svg"><path fill="#515151" d="M456.192 270.848c58.88 24.064 124.416 34.816 164.864 32.768 24.576-1.024 44.032-14.848 43.008-37.376v-1.024c-1.536-22.016-16.896-37.888-39.424-59.392l-24.576-16.896c-5.12-3.584-11.776-5.632-17.92-5.632H573.44c-8.704 0.512-14.336 8.704-12.288 17.408 1.024 4.096 3.072 9.216 5.632 11.264l22.528 16.384c22.528 15.872 34.816 34.816 20.48 36.352-1.024 0-14.848-0.512-29.184-3.072-15.872-2.56-46.592-9.728-62.976-13.824-16.384-4.096-70.656-23.552-95.232-41.984-30.72-23.552-54.784-53.248-54.784-53.248-9.216-8.192-19.968-10.24-31.232-5.12-104.448 51.2-184.832 146.432-215.552 263.68-0.512 2.56-2.56 4.608-5.12 5.12-44.032 11.264-76.8 51.712-76.8 99.328 0 47.616 32.768 88.064 76.8 99.328 2.56 0.512 4.096 2.56 5.12 5.12 46.592 178.688 208.384 305.152 395.776 305.152 187.392 0 349.184-126.464 395.776-305.152 0.512-2.56 2.56-4.608 5.12-5.12 44.032-11.264 76.8-51.712 76.8-99.328 0-51.712-32.768-91.648-80.896-100.352-45.568-180.736-208.384-309.248-396.8-309.248-8.192 0-16.896 0-25.088 0.512-23.04 1.536-21.504 19.456-21.504 19.456s-1.536 25.088 22.528 23.04c7.68-0.512 15.36-1.024 23.552-1.024 176.64 0 328.192 126.464 359.936 300.032 3.584 18.432 19.968 31.232 39.424 29.696 0 0 2.048 0 3.584-0.512h1.536c13.824 0.512 33.792 6.144 33.792 36.352 0 20.48-14.848 36.864-34.816 36.864-0.512 0-3.584-0.512-4.096-0.512-19.456-2.048-35.84 11.264-39.424 29.696-31.744 174.08-183.296 300.032-359.936 300.032-177.152 0-328.192-125.952-359.936-300.032-3.072-17.408-21.504-29.696-39.424-29.696h-3.584-0.512c-19.968 0-34.816-16.384-34.816-36.864 0-19.968 14.848-36.864 34.816-36.864 0.512 0 3.584 0.512 4.096 0.512 18.944 2.048 35.84-11.264 39.424-29.696 18.432-102.912 73.216-195.584 179.712-255.488 2.56-1.536 6.144-1.024 8.192 1.024 17.408 20.48 66.56 59.904 112.128 78.336z"  /><path fill="#515151" d="M626.176 477.696c0 15.872 8.192 30.208 22.016 37.888 13.824 7.68 30.208 7.68 44.032 0 13.824-7.68 22.016-22.528 22.016-37.888 0-15.872-8.192-30.208-22.016-37.888a44.9536 44.9536 0 0 0-44.032 0c-13.312 7.68-22.016 22.016-22.016 37.888z m-307.2 0c0 24.576 19.968 44.032 44.032 44.032 24.064 0 44.032-19.968 44.032-44.032 0-24.064-19.968-44.032-44.032-44.032-24.576 0-44.032 19.968-44.032 44.032z m276.48 169.984c-1.024 0.512-23.552 31.744-79.36 31.744-54.272 0-77.312-30.208-79.36-31.232-12.8-10.752-34.304-11.776-48.64-2.048-14.848 9.728-15.872 26.624-3.072 37.888 4.096 3.584 43.52 49.152 131.072 49.152s126.976-45.568 131.072-49.152c12.288-11.264 10.752-27.136-3.072-36.864-13.312-10.752-35.328-9.728-48.64 0.512z m0 0"  /></svg>