<?xml version="1.0" standalone="no"?><!DOCTYPE svg PUBLIC "-//W3C//DTD SVG 1.1//EN" "http://www.w3.org/Graphics/SVG/1.1/DTD/svg11.dtd"><svg class="icon" width="200px" height="200.00px" viewBox="0 0 1024 1024" version="1.1" xmlns="http://www.w3.org/2000/svg"><path fill="#515151" d="M266.4 70.4c-51.9 0-103.8 36.6-146.1 103.2C85 229.2 62.1 298 62.1 348.9c0 49.4 21.4 95.9 60.3 130.7 24.7 22.1 54.6 37.9 87.2 46.3v431.7h108.3V527.2c34.6-8.1 66.4-24.3 92.5-47.6 38.9-34.8 60.3-81.2 60.3-130.7 0-50.9-22.8-119.7-58.2-175.3C370.2 107 318.3 70.4 266.4 70.4z m27.5 462.7v400.5h-60.3V533.1h60.3z m-27.5-24c-99.4 0-180.3-71.8-180.3-160.2 0-45.9 21.9-111.2 54.4-162.5 21.8-34.4 67.2-92 125.8-92 58.6 0 104 57.7 125.8 92 32.6 51.2 54.4 116.5 54.4 162.5 0.2 88.3-80.7 160.2-180.1 160.2zM678.2 371.3a13.6 12.2 0 1 0 27.2 0 13.6 12.2 0 1 0-27.2 0ZM791.4 77.3a13.6 12.2 0 1 0 27.2 0 13.6 12.2 0 1 0-27.2 0ZM679.8 65.1h24v228h-24zM793 179.1h24v192.2h-24zM936.6 77.3v258.5c0 95.6-84.4 173.3-188.2 173.3s-188.2-77.7-188.2-173.3V77.3h-24v258.5c0 52.7 22.3 102.3 62.7 139.7 25.6 23.7 56.5 40.6 90.1 49.7v432.4h103V528.9c39.7-7.7 76.3-26 105.9-53.4 40.4-37.4 62.6-87 62.6-139.7V77.3h-23.9zM768 533.1v400.5h-55V533.1h55z" /></svg>