<?xml version="1.0" standalone="no"?><!DOCTYPE svg PUBLIC "-//W3C//DTD SVG 1.1//EN" "http://www.w3.org/Graphics/SVG/1.1/DTD/svg11.dtd"><svg class="icon" width="200px" height="200.00px" viewBox="0 0 1024 1024" version="1.1" xmlns="http://www.w3.org/2000/svg"><path fill="#515151" d="M281.758152 274.064936c-48.826032 0-88.554872-39.72884-88.554872-88.554872s39.72884-88.554872 88.554872-88.554872 88.554872 39.72884 88.554872 88.554872S330.585207 274.064936 281.758152 274.064936zM281.758152 132.375913c-29.299303 0-53.133128 23.833825-53.133128 53.133128s23.833825 53.133128 53.133128 53.133128 53.133128-23.833825 53.133128-53.133128S311.057455 132.375913 281.758152 132.375913z"  /><path fill="#515151" d="M954.778452 911.662469c-9.78997 0-17.711384-7.921413-17.711384-17.711384 0-307.237453-100.732216-513.620917-194.822151-513.620917-19.11229 0-37.272905 10.29139-53.980425 30.579459-28.918633 35.145451-52.112891 100.82636-60.743456 184.461175 32.585139 28.252461 61.10673 76.733639 78.904071 159.053506 11.449773 52.969399 2.455935 101.855806-22.899546 124.56604-12.106736 10.827603-26.964118 14.424524-40.697911 9.772574-10.79281-3.614317-30.095435-15.808034-38.120203-56.739259-14.736633-75.280544-19.163455-151.262052-14.234189-220.152049-24.542976-15.366989-51.472302-19.007913-78.472236-19.007913-26.999934 0-53.92926 3.640923-78.472236 19.007913 4.929266 68.889997 0.50142 144.871505-14.234189 220.152049-8.025791 40.931225-27.327392 53.124941-38.120203 56.739259-13.732769 4.652973-28.590152 1.055029-40.697911-9.772574-25.355481-22.709211-34.349319-71.596641-22.899546-124.56604 17.797341-82.319867 46.318932-130.801045 78.904071-159.053506-8.630564-83.634816-31.824823-149.315724-60.743456-184.461175-16.70752-20.288069-34.869159-30.579459-53.980425-30.579459-94.089935 0-194.822151 206.384487-194.822151 513.620917 0 9.78997-7.921413 17.711384-17.711384 17.711384-9.78997 0-17.711384-7.921413-17.711384-17.711384 0-307.877019 101.129258-549.043684 230.243895-549.043684 29.783327 0 57.906851 15.038508 81.325214 43.490513 33.917484 41.216727 56.678884 107.21793 66.641793 185.16214 27.362184-12.998035 55.882751-16.120143 82.276888-16.120143 26.394137 0 54.914704 3.122107 82.276888 16.120143 9.962909-77.94421 32.724309-143.945413 66.641793-185.16214 23.418362-28.452006 51.541887-43.490513 81.325214-43.490513 129.114636 0 230.243895 241.166665 230.243895 549.043684C972.489836 903.741056 964.568423 911.662469 954.778452 911.662469zM624.287389 643.506103c-1.833765 55.571666 2.542916 117.136837 15.185864 181.702342 4.151553 21.213137 11.381212 28.893051 14.632255 29.965475 1.781576 0.691755 4.686742-1.591241 5.79396-2.594081 12.712533-11.363815 21.861914-44.597731 11.900028-90.665952C659.81351 706.47218 643.434471 668.861584 624.287389 643.506103zM399.716704 643.506103c-19.147082 25.355481-35.526121 62.966077-47.512107 118.407784-9.962909 46.068222-0.812505 79.302137 11.900028 90.665952 1.107217 1.00284 3.961218 3.303232 5.79396 2.594081 3.252067-1.072425 10.481725-8.751315 14.632255-29.965475C397.174811 760.64294 401.550469 699.078793 399.716704 643.506103z"  /><path fill="#515151" d="M512.002047 522.020214c-39.071877 0-70.844511-31.780821-70.844511-70.844511 0-39.062668 31.772634-70.844511 70.844511-70.844511s70.844511 31.780821 70.844511 70.844511S551.073924 522.020214 512.002047 522.020214zM512.002047 415.752936c-19.526729 0-35.421744 15.886829-35.421744 35.421744s15.895015 35.421744 35.421744 35.421744c19.526729 0 35.421744-15.886829 35.421744-35.421744S531.529799 415.752936 512.002047 415.752936z"  /><path fill="#515151" d="M742.245941 274.064936c-48.826032 0-88.554872-39.72884-88.554872-88.554872s39.72884-88.554872 88.554872-88.554872 88.554872 39.72884 88.554872 88.554872S791.072997 274.064936 742.245941 274.064936zM742.245941 132.375913c-29.299303 0-53.133128 23.833825-53.133128 53.133128s23.833825 53.133128 53.133128 53.133128 53.133128-23.833825 53.133128-53.133128S771.545244 132.375913 742.245941 132.375913z"  /></svg>