<?xml version="1.0" standalone="no"?><!DOCTYPE svg PUBLIC "-//W3C//DTD SVG 1.1//EN" "http://www.w3.org/Graphics/SVG/1.1/DTD/svg11.dtd"><svg class="icon" width="200px" height="200.00px" viewBox="0 0 1024 1024" version="1.1" xmlns="http://www.w3.org/2000/svg"><path fill="#515151" d="M848 240a64 64 0 0 1 64 64v128a32 32 0 0 1-32 32H144a32 32 0 0 1-32-32v-128a64 64 0 0 1 64-64h672z m0 32H176a32 32 0 0 0-31.92 29.6L144 304v128h736v-128a32 32 0 0 0-29.6-31.92L848 272z"  /><path fill="#515151" d="M638.32 128C656.912 128 672 142.32 672 160v80c0 17.68-15.088 32-33.68 32h-252.64C367.088 272 352 257.68 352 240v-80c0-17.68 15.088-32 33.68-32h252.64zM640 160H384v80h256v-80zM848 432a32 32 0 0 1 32 32v400a32 32 0 0 1-32 32H176a32 32 0 0 1-32-32V464a32 32 0 0 1 32-32h672z m0 32H176v400h672V464z"  /><path fill="#515151" d="M550.16 528a32 32 0 0 1 32 32v48.304h61.648a32 32 0 0 1 32 32v56.192a32 32 0 0 1-29.6 31.92l-2.448 0.08-61.6-0.064v55.456a32.08 32.08 0 0 1-32 32.032l-67.152 0.048a31.952 31.952 0 0 1-31.936-29.552l-0.096-2.4 0.032-55.472-67.04-0.08a32 32 0 0 1-31.968-32v-56.16a32 32 0 0 1 32-32h67.008V560a32 32 0 0 1 32-32h67.152z m0 112.304V560h-67.152v80.304H384v56.16l99.008 0.112v87.392l67.152-0.08v-87.504l93.648 0.112V640.32h-93.648z"  /></svg>