<?xml version="1.0" standalone="no"?><!DOCTYPE svg PUBLIC "-//W3C//DTD SVG 1.1//EN" "http://www.w3.org/Graphics/SVG/1.1/DTD/svg11.dtd"><svg class="icon" width="200px" height="200.00px" viewBox="0 0 1024 1024" version="1.1" xmlns="http://www.w3.org/2000/svg"><path fill="#515151" d="M832 400a32 32 0 0 1 32 32v432a32 32 0 0 1-32 32H192a32 32 0 0 1-32-32V432a32 32 0 0 1 32-32h640z m0 32H192v432h640V432z"  /><path fill="#515151" d="M560 400a32 32 0 0 1 32 32v432a32 32 0 0 1-32 32h-96a32 32 0 0 1-32-32V432a32 32 0 0 1 32-32h96z m0 32h-96v432h96V432z"  /><path fill="#515151" d="M896 304a32 32 0 0 1 32 32v64a32 32 0 0 1-32 32H128a32 32 0 0 1-32-32v-64a32 32 0 0 1 32-32h768z m0 32H128v64h768v-64z"  /><path fill="#515151" d="M413.92 96c56.432 0 102.416 48.032 104.352 108.064l0.08 6.56 0.208 5.792 0.192 3.168 0.528 6.848 0.736 7.552 1.504 12.672 1.264 9.344 2.288 15.328 1.792 11.104 3.088 17.984 2.32 12.88 1.232 6.704H413.92c-57.664 0-104.416-50.144-104.416-112s46.752-112 104.416-112z m0 32c-39.472 0-72.416 35.328-72.416 80 0 43.456 31.2 78.08 69.232 79.92l3.184 0.08h81.424l-2.256-14.08-0.944-6.176-1.664-11.68a766.448 766.448 0 0 1-0.72-5.504l-1.248-10.336-0.96-9.44c-0.688-7.52-1.088-14.128-1.2-19.84L486.336 208c0-43.456-31.2-78.08-69.232-79.92l-3.2-0.08z"  /><path fill="#515151" d="M621.088 96c-56.432 0-102.416 48.032-104.352 108.064l-0.08 6.56-0.208 5.792-0.192 3.168-0.528 6.848-0.736 7.552-1.504 12.672-1.264 9.344-2.288 15.328-1.792 11.104-3.088 17.984-2.32 12.88-1.232 6.704h119.584c57.664 0 104.416-50.144 104.416-112s-46.752-112-104.416-112z m0 32c39.472 0 72.416 35.328 72.416 80 0 43.456-31.2 78.08-69.232 79.92l-3.184 0.08H539.68l2.256-14.08 0.944-6.176 1.664-11.68 0.72-5.504 1.248-10.336 0.96-9.44c0.688-7.52 1.088-14.128 1.2-19.84l0.016-2.944c0-43.456 31.2-78.08 69.232-79.92l3.2-0.08z"  /></svg>