<?xml version="1.0" standalone="no"?><!DOCTYPE svg PUBLIC "-//W3C//DTD SVG 1.1//EN" "http://www.w3.org/Graphics/SVG/1.1/DTD/svg11.dtd"><svg class="icon" width="200px" height="200.00px" viewBox="0 0 1024 1024" version="1.1" xmlns="http://www.w3.org/2000/svg"><path fill="#515151" d="M928 160a32 32 0 0 1 32 32v576a32 32 0 0 1-32 32H96a32 32 0 0 1-32-32V192a32 32 0 0 1 32-32h832z m0 32H96v576h832V192z"  /><path fill="#515151" d="M864 224a32 32 0 0 1 32 32v448a32 32 0 0 1-32 32H160a32 32 0 0 1-32-32V256a32 32 0 0 1 32-32h704z m0 32H160v448h704V256z"  /><path fill="#515151" d="M607.328 515.616a32 32 0 0 1-9.152 8.64l-102.288 63.92a32 32 0 0 1-48.96-27.136v-136.384a32 32 0 0 1 50.496-26.112l102.288 72.464a32 32 0 0 1 7.616 44.608z m-26.112-18.496l-102.288-72.464v136.384l102.288-63.92zM460.608 768a32 32 0 0 0-20.624 7.52l-113.872 96A32 32 0 0 0 346.72 928h333.664a32 32 0 0 0 20.064-56.928l-119.168-96A32 32 0 0 0 561.216 768h-100.608z m-113.872 128l113.872-96h100.608l119.184 96H346.72z"  /></svg>