<?xml version="1.0" standalone="no"?><!DOCTYPE svg PUBLIC "-//W3C//DTD SVG 1.1//EN" "http://www.w3.org/Graphics/SVG/1.1/DTD/svg11.dtd"><svg class="icon" width="200px" height="200.00px" viewBox="0 0 1024 1024" version="1.1" xmlns="http://www.w3.org/2000/svg"><path fill="#515151" d="M816 96a32 32 0 0 1 32 32v784a32 32 0 0 1-32 32H208a32 32 0 0 1-32-32V128a32 32 0 0 1 32-32h608z m0 32H208v784h608V128z"  /><path fill="#515151" d="M420.88 160l31.152 29.712h110.592L590.768 160H752a32 32 0 0 1 32 32v560a32 32 0 0 1-32 32H272a32 32 0 0 1-32-32V192a32 32 0 0 1 32-32h148.88z m183.648 32l-28.144 29.712h-137.168L408.064 192H272v560h480V192h-147.472zM512 800a48 48 0 1 1 0 96 48 48 0 0 1 0-96z m0 32a16 16 0 1 0 0 32 16 16 0 0 0 0-32z"  /></svg>