<?xml version="1.0" standalone="no"?><!DOCTYPE svg PUBLIC "-//W3C//DTD SVG 1.1//EN" "http://www.w3.org/Graphics/SVG/1.1/DTD/svg11.dtd"><svg class="icon" width="200px" height="200.00px" viewBox="0 0 1024 1024" version="1.1" xmlns="http://www.w3.org/2000/svg"><path fill="#515151" d="M768 96a32 32 0 0 1 32 32v720a32 32 0 0 1-32 32H176a32 32 0 0 1-32-32V128a32 32 0 0 1 32-32h592z m0 32H176v720h592V128z"  /><path fill="#515151" d="M766.832 96l104.864 25.984A32 32 0 0 1 896 153.04V912a32 32 0 0 1-32 32H238.928a32 32 0 0 1-24.528-11.44L144 848.528h590.832a32 32 0 0 0 32-32V96z m32 40.88v679.648a64 64 0 0 1-60.8 63.92l-3.2 0.08H212.56L238.928 912H864V153.04l-65.168-16.16z"  /><path fill="#515151" d="M272 352h256v32H272zM272 256h400v32H272zM160 576h624v32H160z"  /></svg>