<?xml version="1.0" standalone="no"?><!DOCTYPE svg PUBLIC "-//W3C//DTD SVG 1.1//EN" "http://www.w3.org/Graphics/SVG/1.1/DTD/svg11.dtd"><svg class="icon" width="200px" height="200.00px" viewBox="0 0 1024 1024" version="1.1" xmlns="http://www.w3.org/2000/svg"><path fill="#515151" d="M129.122823 559.25014c32.497135-54.882981 57.223283-96.649224 18.72548-167.529551 5.250584 84.442204-23.352871 125.525901-46.983058 159.459759-23.923876 34.356482-43.574425 62.581314-23.537066 127.910205 9.94756-49.163723 31.918967-86.271876 51.794644-119.840413z m823.838237-20.086477l-35.491328-83.408665c-6.89606-15.97381-22.615067-26.296923-40.047089-26.296923-5.89936 0-13.068643 5.560646-18.533098 7.82727l-207.658504 85.506442v-24.430412c0-37.539988-13.879102-45.620014-28.564569-63.206554-9.209756-11.030218-81.372286-90.286306-81.372285-144.45195l-1.484818-179.927928c0-22.025643-17.965164-39.943734-40.049134-39.943735h-94.441953c-22.083971 0-35.035958 26.835182-35.035957 48.859801v171.011862c0 54.286394-17.70729 48.469921-49.815569 96.099709-14.462387 21.454638-28.842909 37.386492-38.053688 48.416709-14.684444 17.585517-23.549346 28.201296-23.549346 65.742307l1.480724-2.601244v195.443297l-168.887478 65.624627c-22.122857 9.419534-32.459273 35.077913-23.039739 57.20077l32.716123 76.988441c7.014764 16.242939 23.384593 28.030403 38.923497 28.02938 4.168949 0 8.222265-0.825808 12.049431-2.453888l105.745393-44.974307 1.348717 13.913894c3.381004 34.873252 33.55114 62.189388 68.682266 62.189388h249.38586c18.240433 0 35.516912-7.223518 48.649-20.340258 13.130042-13.117762 25.313525-22.51376 25.313525-40.734749V718.234061l1.295506-11.183713c102.011348-43.282782 187.759291-79.748299 274.664593-117.031437 18.310018-7.837502 37.641295-23.022343 25.76992-50.855248zM406.927943 119.691009h97.721649v122.152061h-97.721649v-122.152061z m-97.720626 390.885572c0-34.399461 5.247514-54.525847 17.796319-66.665329 8.29185-8.021697 78.089519-90.607624 78.43949-161.071465 4.603855-5.779633 1.484817-16.567327 1.484817-16.567328h97.721649v24.430412c0 70.01768 65.137533 145.174404 73.498967 153.277966 12.530384 12.140505 23.349801 22.626323 23.349801 56.981782v41.857317L309.207317 669.37426V510.576581z m292.227598 370.873796c0 13.349029-10.131755 20.011776-23.494087 20.011776h-244.304122c-13.362332 0-24.430412 1.133823-24.430412-12.21623v-24.430412l0.615007-12.604062c93.627401-39.785122 187.029674-79.287811 277.357935-117.492948l14.255679-6.028297v152.760173z m-451.025277 7.79657l-48.860824-97.720626 781.772166-329.810564 36.644595 97.720625L150.409638 889.246947z"  /></svg>